<svg width="21" height="22" viewBox="0 0 21 22" fill="none" xmlns="http://www.w3.org/2000/svg">
<g clip-path="url(#clip0)">
<path d="M10.5035 5.35159C7.52586 5.35159 5.11523 7.87976 5.11523 10.9964C5.11523 14.1158 7.52848 16.6413 10.5035 16.6413C13.4811 16.6413 15.8917 14.1131 15.8917 10.9964C15.8917 7.87701 13.4785 5.35159 10.5035 5.35159ZM10.5035 14.6603C8.57061 14.6603 7.00611 13.0204 7.00611 10.9964C7.00611 8.97243 8.57148 7.33251 10.5035 7.33251C12.4355 7.33251 14.0009 8.97243 14.0009 10.9964C14.0017 13.0204 12.4364 14.6603 10.5035 14.6603Z" fill="#C9AB81"/>
<path d="M14.8295 0.0698674C12.8975 -0.0245493 8.11208 -0.019966 6.17833 0.0698674C4.47908 0.153284 2.9802 0.583201 1.77183 1.84912C-0.24767 3.96478 0.0104547 6.81562 0.0104547 10.9965C0.0104547 15.2755 -0.217045 18.0604 1.77183 20.1439C3.7992 22.2669 6.55983 21.9892 10.5035 21.9892C14.5495 21.9892 15.946 21.9919 17.3766 21.4117C19.3217 20.6206 20.79 18.7992 20.9335 15.5276C21.0245 13.5027 21.0192 8.49037 20.9335 6.46453C20.7602 2.60262 18.7818 0.260534 14.8295 0.0698674ZM17.8876 18.7442C16.5637 20.1311 14.7271 20.0074 10.4781 20.0074C6.10308 20.0074 4.3487 20.0752 3.06858 18.7304C1.5942 17.1932 1.86108 14.7246 1.86108 10.9819C1.86108 5.91728 1.36495 2.26987 6.21683 2.00953C7.33158 1.96828 7.6597 1.95453 10.4658 1.95453L10.5052 1.98203C15.1681 1.98203 18.8265 1.47053 19.0461 6.55253C19.096 7.71212 19.1073 8.06045 19.1073 10.9956C19.1065 15.5258 19.1887 17.3747 17.8876 18.7442Z" fill="#C9AB81"/>
<path d="M16.1053 6.44786C16.8006 6.44786 17.3644 5.85729 17.3644 5.12878C17.3644 4.40027 16.8006 3.80969 16.1053 3.80969C15.4099 3.80969 14.8461 4.40027 14.8461 5.12878C14.8461 5.85729 15.4099 6.44786 16.1053 6.44786Z" fill="#C9AB81"/>
</g>
<defs>
<clipPath id="clip0">
<rect width="21" height="22" fill="white"/>
</clipPath>
</defs>
</svg>
