<svg width="40" height="40" viewBox="0 0 40 40" fill="none" xmlns="http://www.w3.org/2000/svg">
<g clip-path="url(#clip0)">
<path d="M21.1169 0.255027C21.4622 -0.0785512 22.0126 -0.0689342 22.3462 0.27638C22.6715 0.613299 22.6715 1.14737 22.3462 1.4842L3.83639 19.9957L22.3479 38.5055C22.6932 38.8391 22.7028 39.3893 22.3692 39.7347C22.0357 40.08 21.4854 40.0896 21.14 39.7561C21.1327 39.7491 21.1256 39.742 21.1186 39.7347L1.99336 20.6095C1.654 20.27 1.654 19.7197 1.99336 19.3802L21.1169 0.255027Z" fill="#009688"/>
<path d="M17.6396 19.3803L36.7648 0.255027C37.1102 -0.0785512 37.6605 -0.0689342 37.9941 0.27638C38.3194 0.613299 38.3194 1.14737 37.9941 1.48428L19.4843 19.9958L37.9958 38.5055C38.3411 38.8391 38.3507 39.3893 38.0172 39.7347C37.6836 40.08 37.1333 40.0896 36.7879 39.7561C36.7806 39.7491 36.7736 39.742 36.7665 39.7347L17.6413 20.6095C17.3015 20.2705 17.3007 19.7202 17.6396 19.3803Z" fill="#009688"/>
<path d="M21.7324 39.9903C22.2125 39.9912 22.6024 39.6026 22.6033 39.1225C22.6037 38.891 22.5117 38.6689 22.3479 38.5054L3.83635 19.9957L22.3479 1.48596C22.6814 1.14065 22.6718 0.590283 22.3265 0.256705C21.9896 -0.0686413 21.4555 -0.0686413 21.1187 0.256705L1.9934 19.382C1.65404 19.7214 1.65404 20.2717 1.9934 20.6112L21.1186 39.7364C21.2815 39.899 21.5022 39.9903 21.7324 39.9903Z" fill="#C9AB81"/>
<path d="M37.3803 39.9902C37.8604 39.9911 38.2503 39.6025 38.2512 39.1224C38.2516 38.891 38.1596 38.6689 37.9957 38.5054L19.4842 19.9956L37.9957 1.48592C38.3357 1.14599 38.3357 0.594886 37.9957 0.254951C37.6558 -0.0849837 37.1047 -0.0849837 36.7648 0.254951L17.6395 19.3802C17.3001 19.7197 17.3001 20.2699 17.6395 20.6095L36.7648 39.7347C36.9278 39.8982 37.1493 39.9902 37.3803 39.9902Z" fill="#C9AB81"/>
</g>
<defs>
<clipPath id="clip0">
<rect width="40" height="40" fill="white" transform="matrix(-1 0 0 1 40 0)"/>
</clipPath>
</defs>
</svg>
